<?xml version="1.0" encoding="UTF-8"?>
<svg version="1.1" xmlns="http://www.w3.org/2000/svg" width="260" height="182">
<path d="M0 0 C4.07657577 0.53831394 8.10240647 1.21271621 12.13729858 2.00584412 C13.05584122 2.1810408 13.97438385 2.35623749 14.92076111 2.53674316 C16.84672287 2.9056739 18.77200678 3.2781595 20.69662476 3.65403748 C23.6550571 4.23120283 26.61563998 4.79611943 29.57675171 5.35935974 C31.45123791 5.71997518 33.32559194 6.08127853 35.19979858 6.44334412 C36.08823959 6.61317307 36.9766806 6.78300201 37.89204407 6.95797729 C44.08774079 8.17503632 44.08774079 8.17503632 45.20370483 9.29100037 C45.48768335 12.09923236 45.65217148 14.90746671 45.82479858 17.72459412 C45.96682448 20.45161707 45.96682448 20.45161707 48.20370483 22.29100037 C48.24128906 21.34462708 48.24128906 21.34462708 48.27963257 20.37913513 C48.3952462 17.53703212 48.51812799 14.69528954 48.64120483 11.85350037 C48.68052124 10.86027771 48.71983765 9.86705505 48.76034546 8.84373474 C48.80223999 7.89949646 48.84413452 6.95525818 48.88729858 5.98240662 C48.94228516 4.67058411 48.94228516 4.67058411 48.99838257 3.33226013 C49.20370483 1.29100037 49.20370483 1.29100037 50.20370483 0.29100037 C53.20701501 0.14906699 56.19587618 0.24863658 59.20370483 0.29100037 C59.20370483 4.58100037 59.20370483 8.87100037 59.20370483 13.29100037 C60.62682983 13.43537537 62.04995483 13.57975037 63.51620483 13.72850037 C66.31473387 14.01240911 68.51309063 14.39412897 71.20370483 15.29100037 C72.0555455 16.62077143 72.86318187 17.97923551 73.64120483 19.35350037 C75.50049091 21.8725807 76.44034014 23.14485434 79.56796265 23.74363708 C85.61171491 23.55762642 91.56421306 23.08384545 97.56698608 22.38865662 C98.29469711 22.30594009 99.02240814 22.22322357 99.77217102 22.13800049 C104.29400733 21.62145056 104.29400733 21.62145056 108.80844116 21.04466248 C121.50623311 19.36005339 121.50623311 19.36005339 125.68637085 21.65257263 C127.48202676 23.42930449 128.84125073 25.17034041 130.20370483 27.29100037 C130.81858765 27.97807068 131.43347046 28.66514099 132.06698608 29.37303162 C132.54522827 29.9440863 133.02347046 30.51514099 133.51620483 31.10350037 C136.27988513 34.31433792 139.1899008 37.31367202 142.20370483 40.29100037 C145.80458408 43.84836445 149.1921727 47.49112685 152.46932983 51.34568787 C155.02023225 54.20683517 157.80252252 56.81576438 160.60214233 59.43162537 C162.20370483 61.29100037 162.20370483 61.29100037 163.20370483 65.29100037 C156.60370483 65.29100037 150.00370483 65.29100037 143.20370483 65.29100037 C142.87370483 63.64100037 142.54370483 61.99100037 142.20370483 60.29100037 C140.05411937 57.79571307 140.05411937 57.79571307 137.20370483 55.29100037 C136.01536895 54.13570191 134.83207273 52.97520495 133.65292358 51.81053162 C133.03739624 51.20402771 132.4218689 50.5975238 131.78768921 49.97264099 C131.16184937 49.35582458 130.53600952 48.73900818 129.89120483 48.10350037 C129.24602905 47.4750824 128.60085327 46.84666443 127.93612671 46.19920349 C127.32704468 45.59656677 126.71796265 44.99393005 126.09042358 44.37303162 C125.53572388 43.82880554 124.98102417 43.28457947 124.40951538 42.72386169 C123.20370483 41.29100037 123.20370483 41.29100037 123.20370483 39.29100037 C122.56432983 39.06412537 121.92495483 38.83725037 121.26620483 38.60350037 C119.20370483 37.29100037 119.20370483 37.29100037 118.57479858 34.70896912 C118.39110718 33.51207458 118.39110718 33.51207458 118.20370483 32.29100037 C112.01925996 38.91471422 106.03828771 45.61390486 100.34432983 52.66990662 C91.30194161 63.74188198 91.30194161 63.74188198 88.20370483 65.29100037 C86.81461179 65.38018814 85.42133576 65.40859578 84.02938843 65.40452576 C82.73827652 65.40441246 82.73827652 65.40441246 81.42108154 65.40429688 C80.4908316 65.39913559 79.56058167 65.3939743 78.60214233 65.38865662 C77.6505423 65.38724167 76.69894226 65.38582672 75.71850586 65.3843689 C72.67187386 65.37876049 69.62531471 65.36620656 66.57870483 65.35350037 C64.51620589 65.34848645 62.4537058 65.34392335 60.39120483 65.33982849 C55.32867666 65.32878832 50.26620311 65.31151804 45.20370483 65.29100037 C45.20370483 61.02599877 47.64843897 58.79067657 50.20370483 55.60350037 C50.91913452 54.69374451 50.91913452 54.69374451 51.64901733 53.76560974 C52.82746878 52.26897641 54.01475671 50.77930864 55.20370483 49.29100037 C53.95975952 49.34643005 52.71581421 49.40185974 51.43417358 49.45896912 C37.41204412 49.67181004 37.41204412 49.67181004 32.73886108 46.05662537 C29.98436777 43.25963636 27.59464717 40.40308176 25.20370483 37.29100037 C20.29756151 31.48269274 15.11625312 25.93644063 9.89120483 20.41600037 C9.17641968 19.65803162 8.46163452 18.90006287 7.72518921 18.11912537 C4.0019196 14.16875002 4.0019196 14.16875002 0.20370483 10.29100037 C-2.46696719 12.93281706 -5.1321485 15.58010456 -7.79629517 18.22850037 C-8.94098267 19.36061951 -8.94098267 19.36061951 -10.10879517 20.51560974 C-10.83067017 21.23426208 -11.55254517 21.95291443 -12.29629517 22.69334412 C-12.96660767 23.3584198 -13.63692017 24.02349548 -14.32754517 24.70872498 C-15.90968272 26.05333646 -15.90968272 26.05333646 -15.79629517 27.29100037 C-15.05548706 27.31790955 -14.31467896 27.34481873 -13.55142212 27.37254333 C-3.85433949 28.27205865 0.60037984 32.4151891 7.01620483 39.41600037 C7.90501343 40.34154724 8.79382202 41.26709412 9.70956421 42.22068787 C16.49346512 49.33097927 22.95108472 56.7120669 29.20370483 64.29100037 C26.34849947 67.14620573 16.35871636 65.70524504 12.33236694 65.7509613 C10.55051655 65.77747164 8.76881671 65.81829009 6.98764038 65.87400818 C-9.7126618 66.39030395 -9.7126618 66.39030395 -14.67910767 62.11912537 C-16.36782837 60.18943787 -16.36782837 60.18943787 -17.79629517 58.29100037 C-18.72245594 57.30997113 -19.65556683 56.33543372 -20.59707642 55.36912537 C-21.4259436 54.43584412 -22.25481079 53.50256287 -23.10879517 52.54100037 C-28.46564725 46.5743089 -34.07707992 40.9106548 -39.79629517 35.29100037 C-40.41504517 35.95100037 -41.03379517 36.61100037 -41.67129517 37.29100037 C-43.79629517 39.29100037 -43.79629517 39.29100037 -45.79629517 39.29100037 C-46.04701782 39.86987 -46.29774048 40.44873962 -46.55606079 41.04515076 C-47.96007843 43.58758348 -49.54370876 45.21821976 -51.64004517 47.22459412 C-52.3915686 47.95613708 -53.14309204 48.68768005 -53.91738892 49.44139099 C-55.5013761 50.96425552 -57.08731141 52.48509636 -58.67520142 54.00389099 C-59.42672485 54.73672302 -60.17824829 55.46955505 -60.95254517 56.22459412 C-61.64154907 56.88515808 -62.33055298 57.54572205 -63.04043579 58.2263031 C-64.95257141 60.47476402 -65.85552568 62.51010754 -66.79629517 65.29100037 C-72.79629517 65.29100037 -78.79629517 65.29100037 -84.79629517 65.29100037 C-84.79629517 62.29100037 -84.79629517 62.29100037 -83.51455688 60.68455505 C-82.92432739 60.11640076 -82.3340979 59.54824646 -81.72598267 58.96287537 C-81.07629517 58.32736755 -80.42660767 57.69185974 -79.75723267 57.03709412 C-79.06887329 56.37838318 -78.38051392 55.71967224 -77.67129517 55.04100037 C-73.26080495 50.775817 -69.04212909 46.4961658 -65.10098267 41.79148865 C-63.49747108 39.9473303 -61.75250102 38.39488885 -59.85879517 36.85350037 C-56.30186116 33.84169035 -53.30686785 30.57812981 -50.33926392 26.99021912 C-48.79629517 25.29100037 -48.79629517 25.29100037 -45.79629517 23.29100037 C-44.01982533 23.52573338 -42.24353052 23.76921391 -40.47879028 24.08007812 C-36.22918058 24.75557384 -31.95505788 25.40424149 -28.01016235 23.36991882 C-23.88537656 20.26147118 -20.60408308 16.28887222 -17.29629517 12.35350037 C-15.79100833 10.61850753 -14.27405614 8.89821255 -12.73001099 7.19760132 C-11.77929203 6.14533226 -10.85120863 5.07198923 -9.95144653 3.97583008 C-6.90767497 0.53777256 -4.56922238 -0.32254323 0 0 Z M119.20370483 29.29100037 C119.20370483 29.95100037 119.20370483 30.61100037 119.20370483 31.29100037 C120.19370483 30.96100037 121.18370483 30.63100037 122.20370483 30.29100037 C121.21370483 29.96100037 120.22370483 29.63100037 119.20370483 29.29100037 Z " fill="#010101" transform="translate(95.79629516601563,116.70899963378906)"/>
<path d="M0 0 C2.40356445 1.00976562 2.40356445 1.00976562 4.86328125 2.40625 C6.06271362 3.07624023 6.06271362 3.07624023 7.28637695 3.75976562 C8.28499756 4.33404297 9.28361816 4.90832031 10.3125 5.5 C13.509375 7.315 16.70625 9.13 20 11 C20 24.86 20 38.72 20 53 C18.02 53.495 18.02 53.495 16 54 C16 40.8 16 27.6 16 14 C14.02 13.34 12.04 12.68 10 12 C6.37 10.35 2.74 8.7 -1 7 C-1.33 35.05 -1.66 63.1 -2 92 C-4.64 92 -7.28 92 -10 92 C-10.33 82.1 -10.66 72.2 -11 62 C-15.62 59.69 -20.24 57.38 -25 55 C-25 40.48 -25 25.96 -25 11 C-21.803125 9.185 -18.60625 7.37 -15.3125 5.5 C-14.31387939 4.92572266 -13.31525879 4.35144531 -12.28637695 3.75976562 C-11.48675537 3.31310547 -10.68713379 2.86644531 -9.86328125 2.40625 C-9.05157471 1.94541016 -8.23986816 1.48457031 -7.40356445 1.00976562 C-4.64402219 -0.14955046 -2.96646139 -0.35690239 0 0 Z " fill="#000000" transform="translate(158,23)"/>
<path d="M0 0 C1.43388421 0.730097 2.8635322 1.46856704 4.2890625 2.21484375 C5.39314453 2.78041992 5.39314453 2.78041992 6.51953125 3.35742188 C8.32145896 4.28178739 10.11829349 5.21606989 11.9140625 6.15234375 C11.9140625 15.81901042 11.9140625 25.48567708 11.9140625 35.15234375 C11.35976562 35.31089844 10.80546875 35.46945313 10.234375 35.6328125 C8.01875404 36.34638438 5.97690398 37.06998865 3.9140625 38.15234375 C2.63151606 40.69004378 2.63151606 40.69004378 1.9140625 43.15234375 C0.58072917 43.48567708 -0.75260417 43.81901042 -2.0859375 44.15234375 C-2.4159375 44.97734375 -2.7459375 45.80234375 -3.0859375 46.65234375 C-3.4159375 47.47734375 -3.7459375 48.30234375 -4.0859375 49.15234375 C-6.2109375 49.96484375 -6.2109375 49.96484375 -8.0859375 50.15234375 C-9.44519339 47.43383198 -9.14862145 45.16117349 -9.0859375 42.15234375 C-9.0859375 41.49234375 -9.0859375 40.83234375 -9.0859375 40.15234375 C-9.0859375 37.81901042 -9.0859375 35.48567708 -9.0859375 33.15234375 C-8.0959375 32.65734375 -8.0959375 32.65734375 -7.0859375 32.15234375 C-7.7459375 31.49234375 -8.4059375 30.83234375 -9.0859375 30.15234375 C-9.2109375 27.15234375 -9.2109375 27.15234375 -9.0859375 24.15234375 C-9.0859375 23.49234375 -9.0859375 22.83234375 -9.0859375 22.15234375 C-9.0859375 16.15234375 -9.0859375 10.15234375 -9.0859375 4.15234375 C-12.33102361 5.15677517 -15.29196338 6.25535669 -18.3359375 7.77734375 C-21.0859375 9.15234375 -21.0859375 9.15234375 -23.0859375 9.15234375 C-23.0859375 25.65234375 -23.0859375 42.15234375 -23.0859375 59.15234375 C-24.7359375 58.82234375 -26.3859375 58.49234375 -28.0859375 58.15234375 C-28.16188563 50.9441603 -28.21449428 43.7360797 -28.25073242 36.52758789 C-28.26583631 34.07442367 -28.28632071 31.62128651 -28.31225586 29.16821289 C-28.34856807 25.6459282 -28.36564786 22.12399994 -28.37890625 18.6015625 C-28.39439011 17.50148361 -28.40987396 16.40140472 -28.42582703 15.26799011 C-28.42605362 14.24715836 -28.42628021 13.2263266 -28.42651367 12.17456055 C-28.43317551 11.27521286 -28.43983734 10.37586517 -28.44670105 9.44926453 C-28.00666692 6.6476413 -27.30527977 5.86367449 -25.0859375 4.15234375 C-22.66110271 2.81178468 -20.27259465 1.58270369 -17.7734375 0.40234375 C-17.12181641 0.07363281 -16.47019531 -0.25507812 -15.79882812 -0.59375 C-9.60400072 -3.53303748 -5.95721189 -2.81573754 0 0 Z " fill="#020202" transform="translate(81.0859375,79.84765625)"/>
<path d="M0 0 C3.37268475 1.54493078 6.62189787 3.28162256 9.875 5.0625 C10.75414062 5.53494141 11.63328125 6.00738281 12.5390625 6.49414062 C14.69683797 7.65511764 16.84899313 8.82652992 19 10 C19 14.95 19 19.9 19 25 C17.68 25.33 16.36 25.66 15 26 C15 21.71 15 17.42 15 13 C13.02 12.34 11.04 11.68 9 11 C5.37 9.35 1.74 7.7 -2 6 C-2.33 25.47 -2.66 44.94 -3 65 C-5 66 -5 66 -11 65 C-11.33 54.77 -11.66 44.54 -12 34 C-18.93 30.535 -18.93 30.535 -26 27 C-26.95269056 12.35238258 -26.95269056 12.35238258 -24.640625 9.0703125 C-22.49470659 7.78453494 -20.32373715 6.92736299 -18 6 C-15.94917707 4.72292097 -13.9079022 3.43041725 -11.875 2.125 C-7.37730363 -0.72632476 -5.14790839 -1.60253398 0 0 Z " fill="#010101" transform="translate(106,51)"/>
<path d="M0 0 C2.87096144 1.20834323 5.61632108 2.61881983 8.375 4.0625 C10.89125 5.361875 13.4075 6.66125 16 8 C16 17.57 16 27.14 16 37 C14.35 37 12.7 37 11 37 C11 28.42 11 19.84 11 11 C9.02 10.34 7.04 9.68 5 9 C2.36 7.68 -0.28 6.36 -3 5 C-3 17.54 -3 30.08 -3 43 C-13 42 -13 42 -24 39 C-24 28.77 -24 18.54 -24 8 C-5.40372671 -1.29813665 -5.40372671 -1.29813665 0 0 Z " fill="#010101" transform="translate(129,78)"/>
<path d="M0 0 C4.95 2.64 9.9 5.28 15 8 C15 24.83 15 41.66 15 59 C13.02 59.495 13.02 59.495 11 60 C11 43.83 11 27.66 11 11 C8.03 10.01 5.06 9.02 2 8 C-0.02081924 7.04276983 -2.03120677 6.06011943 -4 5 C-4 5.69867188 -4 6.39734375 -4 7.1171875 C-4 15.74479167 -4 24.37239583 -4 33 C-6.58090767 34.31746333 -9.16450458 35.62909617 -11.75 36.9375 C-12.47960937 37.31068359 -13.20921875 37.68386719 -13.9609375 38.06835938 C-14.66992188 38.42607422 -15.37890625 38.78378906 -16.109375 39.15234375 C-16.75874023 39.48226318 -17.40810547 39.81218262 -18.07714844 40.15209961 C-20 41 -20 41 -24 42 C-24 30.78 -24 19.56 -24 8 C-21.69 6.68 -19.38 5.36 -17 4 C-16.13375 3.49855469 -15.2675 2.99710937 -14.375 2.48046875 C-13.59125 2.05378906 -12.8075 1.62710938 -12 1.1875 C-11.21625 0.74792969 -10.4325 0.30835937 -9.625 -0.14453125 C-7 -1 -7 -1 0 0 Z " fill="#020202" transform="translate(184,78)"/>
<path d="M0 0 C0 5.28 0 10.56 0 16 C-7.4049217 20.07270694 -7.4049217 20.07270694 -10.078125 19.74609375 C-12 19 -12 19 -15 17 C-15 16.34 -15 15.68 -15 15 C-16.65 15.33 -18.3 15.66 -20 16 C-20 13.36 -20 10.72 -20 8 C-17.2336466 6.65722268 -14.46123789 5.32744772 -11.6875 4 C-10.90181641 3.6184375 -10.11613281 3.236875 -9.30664062 2.84375 C-8.54931641 2.4828125 -7.79199219 2.121875 -7.01171875 1.75 C-6.31522217 1.41484375 -5.61872559 1.0796875 -4.90112305 0.734375 C-3 0 -3 0 0 0 Z " fill="#020202" transform="translate(180,113)"/>
<path d="M0 0 C3.96 0 7.92 0 12 0 C12.09765625 8.49609375 12.09765625 8.49609375 12 11 C11 12 11 12 8.49609375 12.09765625 C5.6640625 12.06510417 2.83203125 12.03255208 0 12 C0 8.04 0 4.08 0 0 Z " fill="#010101" transform="translate(45,170)"/>
<path d="M0 0 C3.63 0 7.26 0 11 0 C11 3.96 11 7.92 11 12 C7.37 12 3.74 12 0 12 C0 8.04 0 4.08 0 0 Z " fill="#010101" transform="translate(213,170)"/>
<path d="M0 0 C2.64 0 5.28 0 8 0 C9.125 5.625 9.125 5.625 8 9 C5.36 9 2.72 9 0 9 C0 6.03 0 3.06 0 0 Z " fill="#050505" transform="translate(89,134)"/>
<path d="M0 0 C0 2.64 0 5.28 0 8 C-2.25 8.75 -2.25 8.75 -5 9 C-7.3125 7.0625 -7.3125 7.0625 -9 5 C-8.67 4.01 -8.34 3.02 -8 2 C-5.10441559 0.5522078 -3.25811062 0 0 0 Z " fill="#020202" transform="translate(180,131)"/>
</svg>
